<mxfile host="65bd71144e">
    <diagram id="l-KqyDu-5251HusL3xAj" name="Page-1">
        <mxGraphModel dx="857" dy="411" grid="0" gridSize="10" guides="1" tooltips="1" connect="1" arrows="1" fold="1" page="1" pageScale="1" pageWidth="1100" pageHeight="850" background="#ffffff" math="0" shadow="0">
            <root>
                <mxCell id="0"/>
                <mxCell id="1" parent="0"/>
                <mxCell id="7" value="" style="aspect=fixed;html=1;points=[];align=center;image;fontSize=12;image=img/lib/azure2/databases/Data_Factory.svg;" vertex="1" parent="1">
                    <mxGeometry x="229.64" y="68" width="68" height="68" as="geometry"/>
                </mxCell>
                <mxCell id="15" style="edgeStyle=none;html=1;entryX=0.016;entryY=0.532;entryDx=0;entryDy=0;entryPerimeter=0;fillColor=#1ba1e2;strokeColor=#006EAF;strokeWidth=2;rounded=0;" edge="1" parent="1" target="9">
                    <mxGeometry relative="1" as="geometry">
                        <mxPoint x="91.63999999999989" y="283.40329617062537" as="sourcePoint"/>
                    </mxGeometry>
                </mxCell>
                <mxCell id="21" style="edgeStyle=none;rounded=0;html=1;entryX=0.01;entryY=0.48;entryDx=0;entryDy=0;entryPerimeter=0;strokeColor=#006EAF;strokeWidth=2;fillColor=#1ba1e2;endArrow=diamond;endFill=1;" edge="1" parent="1">
                    <mxGeometry relative="1" as="geometry">
                        <mxPoint x="67.99555555555561" y="251" as="sourcePoint"/>
                        <mxPoint x="227.32000000000005" y="102.63999999999999" as="targetPoint"/>
                        <Array as="points">
                            <mxPoint x="69.64" y="103"/>
                        </Array>
                    </mxGeometry>
                </mxCell>
                <mxCell id="8" value="" style="aspect=fixed;html=1;points=[];align=center;image;fontSize=12;image=img/lib/azure2/databases/SQL_Database.svg;" vertex="1" parent="1">
                    <mxGeometry x="43" y="251" width="48" height="64" as="geometry"/>
                </mxCell>
                <mxCell id="16" style="edgeStyle=none;html=1;fillColor=#1ba1e2;strokeColor=#006EAF;strokeWidth=2;rounded=0;" edge="1" parent="1" source="9" target="10">
                    <mxGeometry relative="1" as="geometry"/>
                </mxCell>
                <mxCell id="9" value="" style="aspect=fixed;html=1;points=[];align=center;image;fontSize=12;image=img/lib/azure2/analytics/Data_Lake_Store_Gen1.svg;" vertex="1" parent="1">
                    <mxGeometry x="165.64" y="257" width="64" height="52" as="geometry"/>
                </mxCell>
                <mxCell id="17" style="edgeStyle=none;html=1;entryX=0.031;entryY=0.635;entryDx=0;entryDy=0;entryPerimeter=0;fillColor=#1ba1e2;strokeColor=#006EAF;strokeWidth=2;rounded=0;" edge="1" parent="1" source="10" target="14">
                    <mxGeometry relative="1" as="geometry"/>
                </mxCell>
                <mxCell id="23" style="edgeStyle=none;rounded=0;html=1;strokeColor=#006EAF;strokeWidth=2;fillColor=#1ba1e2;endArrow=diamond;endFill=1;entryX=1.018;entryY=0.475;entryDx=0;entryDy=0;entryPerimeter=0;exitX=0.493;exitY=0.047;exitDx=0;exitDy=0;exitPerimeter=0;" edge="1" parent="1" source="14">
                    <mxGeometry relative="1" as="geometry">
                        <mxPoint x="295.8639999999999" y="102.30000000000001" as="targetPoint"/>
                        <Array as="points">
                            <mxPoint x="464.64" y="102"/>
                            <mxPoint x="326.64" y="103"/>
                        </Array>
                    </mxGeometry>
                </mxCell>
                <mxCell id="10" value="" style="aspect=fixed;html=1;points=[];align=center;image;fontSize=12;image=img/lib/azure2/analytics/Azure_Databricks.svg;" vertex="1" parent="1">
                    <mxGeometry x="294.64" y="251" width="63" height="68.22" as="geometry"/>
                </mxCell>
                <mxCell id="11" value="" style="aspect=fixed;html=1;points=[];align=center;image;fontSize=12;image=img/lib/azure2/analytics/Azure_Synapse_Analytics.svg;" vertex="1" parent="1">
                    <mxGeometry x="593.64" y="107" width="60" height="69" as="geometry"/>
                </mxCell>
                <mxCell id="12" value="" style="aspect=fixed;html=1;points=[];align=center;image;fontSize=12;image=img/lib/azure2/ai_machine_learning/Machine_Learning.svg;" vertex="1" parent="1">
                    <mxGeometry x="605.64" y="241" width="64" height="68" as="geometry"/>
                </mxCell>
                <mxCell id="13" value="" style="aspect=fixed;html=1;points=[];align=center;image;fontSize=12;image=img/lib/azure2/general/Dashboard.svg;" vertex="1" parent="1">
                    <mxGeometry x="585.64" y="408" width="68" height="48" as="geometry"/>
                </mxCell>
                <mxCell id="18" style="edgeStyle=none;rounded=0;html=1;strokeColor=#006EAF;strokeWidth=2;exitX=1.01;exitY=0.481;exitDx=0;exitDy=0;exitPerimeter=0;fillColor=#1ba1e2;" edge="1" parent="1" source="14" target="12">
                    <mxGeometry relative="1" as="geometry"/>
                </mxCell>
                <mxCell id="19" style="edgeStyle=none;rounded=0;html=1;entryX=0.028;entryY=0.478;entryDx=0;entryDy=0;entryPerimeter=0;strokeColor=#006EAF;strokeWidth=2;fillColor=#1ba1e2;" edge="1" parent="1" source="14" target="11">
                    <mxGeometry relative="1" as="geometry"/>
                </mxCell>
                <mxCell id="20" style="edgeStyle=none;rounded=0;html=1;entryX=0.005;entryY=0.694;entryDx=0;entryDy=0;entryPerimeter=0;strokeColor=#006EAF;strokeWidth=2;fillColor=#1ba1e2;" edge="1" parent="1" source="14" target="13">
                    <mxGeometry relative="1" as="geometry"/>
                </mxCell>
                <mxCell id="14" value="" style="aspect=fixed;html=1;points=[];align=center;image;fontSize=12;image=img/lib/azure2/analytics/Data_Lake_Store_Gen1.svg;" vertex="1" parent="1">
                    <mxGeometry x="432.64" y="251" width="64" height="52" as="geometry"/>
                </mxCell>
            </root>
        </mxGraphModel>
    </diagram>
    <diagram id="Y4R79opLscu9vmA9i0gT" name="Page-2">
        <mxGraphModel dx="574" dy="493" grid="0" gridSize="10" guides="1" tooltips="1" connect="1" arrows="1" fold="1" page="1" pageScale="1" pageWidth="1100" pageHeight="850" background="#ffffff" math="0" shadow="0">
            <root>
                <mxCell id="0"/>
                <mxCell id="1" parent="0"/>
                <mxCell id="P80_DR29M5rQ3bEMg-qZ-2" value="Salman Jahangir&amp;nbsp;" style="text;strokeColor=none;align=center;fillColor=none;html=1;verticalAlign=middle;whiteSpace=wrap;rounded=0;fontColor=#121212;" vertex="1" parent="1">
                    <mxGeometry x="377" y="86" width="191" height="167" as="geometry"/>
                </mxCell>
            </root>
        </mxGraphModel>
    </diagram>
</mxfile>